<?xml version="1.0" encoding="UTF-8"?>
<svg xmlns="http://www.w3.org/2000/svg" width="800" height="412" viewBox="0 0 800 412" role="img" aria-label="Top languages">
  <rect class="card" x="0.5" y="0.5" width="799" height="411" rx="18" />

  <style>
    text { font-family: "Segoe UI", "Helvetica Neue", Arial, sans-serif; font-size: 12px; fill: #111111; }
    .card { fill: #ffffff; stroke: #111111; stroke-width: 2; }
    .bar { fill: #111111; }
    .watermark { fill: #111111; opacity: 0.28; font-size: 12px; font-weight: 600; letter-spacing: 0.3px; }
  </style>

  <text x="400" y="40" text-anchor="middle" font-size="14px" font-weight="600">Top Languages</text>

  
    <g>
      <text x="126" y="86" text-anchor="end">TypeScript</text>
      <rect class="bar" x="154" y="72" width="512" height="18" rx="3" />
      <text x="756" y="86" text-anchor="end">34.31%</text>
    </g>
    <g>
      <text x="126" y="116" text-anchor="end">JavaScript</text>
      <rect class="bar" x="154" y="102" width="361.83" height="18" rx="3" />
      <text x="756" y="116" text-anchor="end">24.25%</text>
    </g>
    <g>
      <text x="126" y="146" text-anchor="end">Rust</text>
      <rect class="bar" x="154" y="132" width="360.23" height="18" rx="3" />
      <text x="756" y="146" text-anchor="end">24.14%</text>
    </g>
    <g>
      <text x="126" y="176" text-anchor="end">C++</text>
      <rect class="bar" x="154" y="162" width="90.35" height="18" rx="3" />
      <text x="756" y="176" text-anchor="end">6.05%</text>
    </g>
    <g>
      <text x="126" y="206" text-anchor="end">Shell</text>
      <rect class="bar" x="154" y="192" width="58.42" height="18" rx="3" />
      <text x="756" y="206" text-anchor="end">3.91%</text>
    </g>
    <g>
      <text x="126" y="236" text-anchor="end">Solidity</text>
      <rect class="bar" x="154" y="222" width="51.69" height="18" rx="3" />
      <text x="756" y="236" text-anchor="end">3.46%</text>
    </g>
    <g>
      <text x="126" y="266" text-anchor="end">Java</text>
      <rect class="bar" x="154" y="252" width="42.47" height="18" rx="3" />
      <text x="756" y="266" text-anchor="end">2.85%</text>
    </g>
    <g>
      <text x="126" y="296" text-anchor="end">HTML</text>
      <rect class="bar" x="154" y="282" width="5.91" height="18" rx="3" />
      <text x="756" y="296" text-anchor="end">0.40%</text>
    </g>
    <g>
      <text x="126" y="326" text-anchor="end">CSS</text>
      <rect class="bar" x="154" y="312" width="5.15" height="18" rx="3" />
      <text x="756" y="326" text-anchor="end">0.35%</text>
    </g>
    <g>
      <text x="126" y="356" text-anchor="end">C</text>
      <rect class="bar" x="154" y="342" width="4.13" height="18" rx="3" />
      <text x="756" y="356" text-anchor="end">0.28%</text>
    </g>

  <text class="watermark" x="400" y="394" text-anchor="middle">hasso.tech</text>
</svg>