<?xml version="1.0" encoding="UTF-8"?>
<svg xmlns="http://www.w3.org/2000/svg" width="800" height="412" viewBox="0 0 800 412" role="img" aria-label="Top languages">
  <rect class="card" x="0.5" y="0.5" width="799" height="411" rx="18" />

  <style>
    text { font-family: "Segoe UI", "Helvetica Neue", Arial, sans-serif; font-size: 12px; fill: #111111; }
    .card { fill: #ffffff; stroke: #111111; stroke-width: 2; }
    .bar { fill: #111111; }
    .watermark { fill: #111111; opacity: 0.28; font-size: 12px; font-weight: 600; letter-spacing: 0.3px; }
  </style>

  <text x="400" y="40" text-anchor="middle" font-size="14px" font-weight="600">Top Languages</text>

  
    <g>
      <text x="126" y="86" text-anchor="end">Rust</text>
      <rect class="bar" x="154" y="72" width="512" height="18" rx="3" />
      <text x="756" y="86" text-anchor="end">30.03%</text>
    </g>
    <g>
      <text x="126" y="116" text-anchor="end">JavaScript</text>
      <rect class="bar" x="154" y="102" width="486.34" height="18" rx="3" />
      <text x="756" y="116" text-anchor="end">28.52%</text>
    </g>
    <g>
      <text x="126" y="146" text-anchor="end">TypeScript</text>
      <rect class="bar" x="154" y="132" width="390.8" height="18" rx="3" />
      <text x="756" y="146" text-anchor="end">22.92%</text>
    </g>
    <g>
      <text x="126" y="176" text-anchor="end">C++</text>
      <rect class="bar" x="154" y="162" width="128.41" height="18" rx="3" />
      <text x="756" y="176" text-anchor="end">7.53%</text>
    </g>
    <g>
      <text x="126" y="206" text-anchor="end">Solidity</text>
      <rect class="bar" x="154" y="192" width="73.47" height="18" rx="3" />
      <text x="756" y="206" text-anchor="end">4.31%</text>
    </g>
    <g>
      <text x="126" y="236" text-anchor="end">Java</text>
      <rect class="bar" x="154" y="222" width="60.37" height="18" rx="3" />
      <text x="756" y="236" text-anchor="end">3.54%</text>
    </g>
    <g>
      <text x="126" y="266" text-anchor="end">Shell</text>
      <rect class="bar" x="154" y="252" width="31.97" height="18" rx="3" />
      <text x="756" y="266" text-anchor="end">1.88%</text>
    </g>
    <g>
      <text x="126" y="296" text-anchor="end">HTML</text>
      <rect class="bar" x="154" y="282" width="8.4" height="18" rx="3" />
      <text x="756" y="296" text-anchor="end">0.49%</text>
    </g>
    <g>
      <text x="126" y="326" text-anchor="end">CSS</text>
      <rect class="bar" x="154" y="312" width="7.32" height="18" rx="3" />
      <text x="756" y="326" text-anchor="end">0.43%</text>
    </g>
    <g>
      <text x="126" y="356" text-anchor="end">C</text>
      <rect class="bar" x="154" y="342" width="5.87" height="18" rx="3" />
      <text x="756" y="356" text-anchor="end">0.34%</text>
    </g>

  <text class="watermark" x="400" y="394" text-anchor="middle">hasso.tech</text>
</svg>